<svg width="22" height="20" viewBox="0 0 22 20" fill="none" xmlns="http://www.w3.org/2000/svg">
<path d="M10.1825 0.85958C10.4823 -0.0606967 11.7842 -0.0606959 12.0841 0.859581L13.8352 6.23398C13.9693 6.64561 14.353 6.92418 14.786 6.92418H20.4467C21.4161 6.92418 21.8184 8.16521 21.0334 8.73398L16.4586 12.0486C16.1071 12.3033 15.96 12.7555 16.0945 13.1682L17.843 18.5349C18.1431 19.4557 17.0898 20.2227 16.3055 19.6544L11.72 16.3321C11.3699 16.0784 10.8966 16.0784 10.5465 16.3321L5.96099 19.6544C5.17673 20.2227 4.12344 19.4557 4.42346 18.5348L6.17204 13.1682C6.30649 12.7555 6.15941 12.3033 5.80795 12.0486L1.23308 8.73398C0.448071 8.16521 0.850401 6.92418 1.8198 6.92418H7.48055C7.91348 6.92418 8.29724 6.64561 8.43136 6.23398L10.1825 0.85958Z" fill="#070707"/>
</svg>
